<svg width="32" height="32" viewBox="0 0 81 194" fill="none" xmlns="http://www.w3.org/2000/svg">
<g clip-path="url(#clip0_3389_2685)">
<path fill-rule="evenodd" clip-rule="evenodd" d="M46.302 124.924V189.613C46.302 193.051 44.143 194.693 41.4794 193.238L4.88138 173.173C1.92444 171.179 0.117416 167.858 0.0352783 164.291V101.069C0.575038 101.503 1.13826 101.878 1.73669 102.207L46.302 124.924Z" fill="#765CD6"/>
<path fill-rule="evenodd" clip-rule="evenodd" d="M0.0352017 46.0838V48.5596C-0.0117339 47.6561 -0.0117339 46.8347 0.0352017 46.0838Z" fill="#765CD6"/>
<path fill-rule="evenodd" clip-rule="evenodd" d="M81.5858 3.41933V49.2049C81.5271 52.1032 80.0017 54.7903 77.5611 56.3392L55.1963 67.8032H55.1845L4.09514 41.6249C4.02474 41.578 3.95434 41.5427 3.88393 41.5075C3.69619 41.4136 3.50845 41.355 3.3207 41.2963C3.19163 41.2728 3.06256 41.2376 2.94522 41.2259C2.82788 41.2024 2.71054 41.2025 2.5932 41.2025C2.24119 41.2142 1.9009 41.2963 1.58409 41.4371C1.47848 41.4958 1.37288 41.5427 1.27901 41.6131C1.27901 41.6131 1.27901 41.6249 1.25554 41.6249L1.22034 41.6601C2.69881 38.973 5.57361 37.4241 9.85649 35.1243L77.5611 0.403705C79.7671 -0.722749 81.5858 0.579722 81.5858 3.41933Z" fill="#765CD6"/>
<path fill-rule="evenodd" clip-rule="evenodd" d="M81.5857 86.4248V132.187C81.5857 135.027 79.767 136.352 77.561 135.226L4.09504 97.5485C2.42883 96.5042 1.19677 94.9319 0.539673 93.1248C0.598342 93.2187 0.645278 93.3126 0.715681 93.3947C0.762617 93.4534 0.809552 93.512 0.868222 93.5707C0.879956 93.5941 0.89169 93.6059 0.915158 93.6294C0.962093 93.6763 1.00903 93.735 1.0677 93.7819C1.12637 93.8523 1.19677 93.8992 1.26717 93.9579C1.37278 94.0283 1.46665 94.0988 1.58399 94.1457C2.27629 94.5094 3.15633 94.486 4.09504 94.0049L55.1844 67.8148H55.1962L77.561 79.2671C80.0134 80.8277 81.527 83.5148 81.5857 86.4248Z" fill="#A08AEE"/>
<path fill-rule="evenodd" clip-rule="evenodd" d="M55.1846 67.8149L4.09521 94.005C3.1565 94.486 2.27645 94.5095 1.58415 94.1458C1.46681 94.0988 1.37294 94.0284 1.26734 93.958C1.19693 93.8993 1.12653 93.8524 1.06786 93.782C1.00919 93.7351 0.962256 93.6764 0.915321 93.6295C0.891853 93.606 0.880119 93.5942 0.868385 93.5707C0.809716 93.5121 0.76278 93.4534 0.715844 93.3948C0.645441 93.3126 0.598505 93.2188 0.539836 93.1249C0.223021 92.5617 0.0352783 91.8342 0.0352783 90.9893V44.6287C0.0352783 43.2441 0.4929 42.2115 1.2204 41.66C1.23214 41.6483 1.24387 41.6366 1.2556 41.6366C1.2556 41.6366 1.26734 41.6131 1.27907 41.6131C1.37294 41.5427 1.47855 41.4957 1.58415 41.437C1.90097 41.2962 2.24125 41.2142 2.59327 41.2024C2.71061 41.2024 2.82795 41.2024 2.94529 41.2258C3.06262 41.2376 3.1917 41.2728 3.32077 41.2962C3.50851 41.3549 3.69625 41.4136 3.884 41.5074C3.9544 41.5426 4.0248 41.5779 4.09521 41.6248L55.1846 67.8149Z" fill="#8B73E2"/>
</g>
<defs>
<clipPath id="clip0_3389_2685">
<rect width="81" height="194" fill="white"/>
</clipPath>
</defs>
</svg>
